<?xml version="1.0" encoding="utf-8"?>
<!DOCTYPE svg PUBLIC "-//W3C//DTD SVG 1.0//EN" "http://www.w3.org/TR/2001/REC-SVG-20010904/DTD/svg10.dtd">
<svg version="1.0" xmlns="http://www.w3.org/2000/svg" width="1024px" height="1024px" viewBox="0 0 1024 1024" preserveAspectRatio="xMidYMid meet">
 <g fill="#141414">
  <path d="M0 512 l0 -512 512 0 512 0 0 512 0 512 -512 0 -512 0 0 -512z m773.75 273.05 c1.85 -0.40 1.70 -0.45 -1.50 -0.50 -3.80 -0.05 -7.05 -1.05 -9.75 -2.95 -2.15 -1.50 -3.40 -2.90 -6.55 -7.30 -2.75 -3.90 -2.80 -3.85 -1.90 3.25 l0.55 4.35 3.85 1.15 c7.10 2.15 11.70 2.70 15.30 2z m-464.80 -1.85 c3.30 -1.30 5.90 -2.95 9.05 -5.70 2 -1.75 1.90 -1.85 -0.70 -0.50 -4.70 2.40 -14.85 2.65 -20.40 0.55 -6.05 -2.35 -11.05 -8.75 -12.90 -16.55 -1.25 -5.35 -1.50 -17.50 -0.35 -17.50 0.45 0 0.60 -0.45 0.45 -1.45 -0.25 -1.80 1.55 -8.35 3.20 -11.65 0.70 -1.40 2.35 -3.70 3.60 -5.10 1.30 -1.40 2 -2.30 1.60 -2 -0.40 0.25 -1.75 1.15 -2.95 1.95 -2.80 1.90 -7.45 7.40 -9.55 11.30 -2.20 4.20 -3.90 9.35 -4.55 14.25 -1.10 7.90 1.25 17.55 5.80 23.60 3.50 4.65 10.05 8.95 15.50 10.10 3.30 0.75 8.65 0.15 12.20 -1.30z m122.70 1.05 c2.35 -0.60 8.85 -3.45 8.85 -3.90 0 -0.05 -2.35 -0.05 -5.25 0.05 -4.65 0.15 -5.50 0.05 -6.95 -0.90 -0.95 -0.55 -2.10 -1.85 -2.60 -2.90 -0.90 -1.70 -0.95 -3.70 -1.10 -26.95 l-0.15 -25.15 8.90 -0.10 c8.80 -0.15 8.90 -0.15 9.05 -1.25 l0.15 -1.15 -9 0 -9.05 0 0 -5.25 c0 -2.90 -0.15 -5.25 -0.35 -5.25 -0.15 0 -1.90 1.50 -3.85 3.40 -1.95 1.85 -5.10 4.80 -7.05 6.50 l-3.50 3.10 3.35 0 3.35 0 0 25.10 0.05 25.05 1.20 2.65 c1.65 3.60 4.65 6.50 7.40 7.10 3.05 0.70 3.35 0.70 6.55 -0.15z m70.10 -0.65 c1.65 -0.50 4.15 -1.55 5.50 -2.30 1.40 -0.75 2.15 -1.25 1.75 -1.10 -7.60 2.45 -7.50 2.40 -12.65 2.20 -6.65 -0.30 -10.10 -1.60 -13.60 -5.10 -1.40 -1.40 -3.15 -3.80 -3.85 -5.30 -3.45 -7.40 -3 -19.25 1.05 -27.10 0.80 -1.60 1.40 -2.90 1.25 -2.90 -0.75 0 -4.70 3 -7.15 5.45 -7 7 -8.90 16.65 -4.85 24.80 3.05 6.20 8.15 10.20 15.20 12 3.90 1 13.30 0.65 17.35 -0.65z m204.75 0.30 c1.65 -0.50 8.50 -4.30 8.50 -4.70 0 -0.15 -0.50 0 -1.05 0.35 -0.60 0.30 -2.80 0.65 -4.95 0.80 -6.65 0.45 -10.85 -1.80 -13.60 -7.30 -1.15 -2.30 -1.15 -2.40 -1.30 -26.25 l-0.15 -23.90 -2.35 0.25 c-1.30 0.20 -3.80 0.45 -5.60 0.60 -4.85 0.50 -4.85 0.45 -2.55 3.05 l2.05 2.35 0 18.85 c0 17.30 0.10 19.15 1 22.80 2 7.80 3.75 10.70 7.25 12.25 4.05 1.80 8.50 2.10 12.75 0.85z m127.40 0.35 c4.20 -1 8.40 -3.20 11.40 -5.95 l2.45 -2.30 -2.05 1 c-3.05 1.50 -7.40 2.15 -12.95 1.85 -7.80 -0.40 -12.65 -3 -16.45 -8.85 -3.90 -6 -4.80 -9.70 -4.80 -19.55 l0 -6.95 20.45 0 20.45 0 0.35 -1.90 c0.65 -4 -2.15 -11 -5.95 -14.80 -2.20 -2.25 -7.30 -4.95 -10.30 -5.50 l-1.75 -0.30 2 0.80 c3.10 1.30 4.50 2.50 6.15 5.05 2 3.10 3.10 7.40 3.10 11.95 l0 3.55 -2.30 0.35 c-1.30 0.15 -8.85 0.30 -16.75 0.30 l-14.45 0 0 -2.15 c0 -4.20 3.20 -11.75 6.60 -15.65 l1.55 -1.75 -1.80 1.05 c-3.45 2.05 -8.60 8.15 -11.05 13.15 -2.60 5.30 -3.65 9.25 -4.10 15.60 -0.90 12.25 5.35 24.05 15.35 28.95 5.65 2.80 9.50 3.30 14.85 2.05z m-622.75 -0.95 c-6.40 -2.40 -11.55 -6.25 -15.55 -11.70 -5.45 -7.35 -7.95 -14.95 -9.15 -27.75 -1.75 -18.60 4.15 -35.40 15.35 -43.80 1.65 -1.25 3.45 -2.60 4 -2.95 0.50 -0.30 -0.50 0.10 -2.30 0.95 -16.85 8.15 -28.20 24.90 -28.15 41.70 0 7.45 1.80 15 5.20 22 2.35 4.80 7.80 11.40 12.10 14.60 4.05 3 10.25 5.90 15.15 7.10 5.50 1.35 7.20 1.25 3.35 -0.15z m323.80 -1.15 c-4.25 -4.50 -11.45 -14.20 -11.45 -15.40 0 -0.95 -0.25 -1.25 -1.10 -1.25 -0.80 0 -1.90 -0.95 -3.40 -2.90 -1.25 -1.55 -5.90 -7.35 -10.30 -12.85 -13.55 -16.90 -17.25 -22.10 -19.50 -27.65 -0.95 -2.35 -1.20 -3.75 -1.20 -7.85 0 -5.60 0.95 -8.45 4 -11.90 0.90 -1 1.45 -1.85 1.30 -1.85 -0.20 0 -1.50 0.60 -2.90 1.30 -5 2.55 -9.05 7.55 -10.15 12.55 -0.65 3.05 2.25 11.20 6.30 17.80 0.80 1.30 1.45 2.70 1.45 3.10 0 0.40 0.30 0.75 0.70 0.75 0.35 0 1.10 0.60 1.55 1.35 0.85 1.25 18.10 23.20 24.10 30.65 2.10 2.60 2.65 3.60 2.65 5.15 0 1.70 0.10 1.85 1.40 1.85 1.05 0.05 1.85 0.70 3.85 3.30 1.40 1.80 2.90 3.60 3.40 4.05 1.05 1 3.60 1.50 7.85 1.60 l3.20 0.05 -1.75 -1.85z m-180.70 -0.50 l-1.25 -1.90 0 -22.25 c0 -18.85 0.10 -22.45 0.75 -23.35 0.65 -0.95 0.65 -1.05 -0.25 -1.30 -0.95 -0.25 -1 -0.55 -0.70 -5.90 0.35 -5.35 0.30 -5.60 -0.60 -5.35 -1.20 0.35 -11.85 4.10 -12.15 4.25 -0.10 0.10 0.75 1.10 1.90 2.25 1.15 1.15 2.30 2.90 2.60 3.90 0.35 1.15 0.45 9.85 0.35 24.75 l-0.15 23 -1.15 1.90 -1.20 1.85 6.60 0 6.55 0 -1.30 -1.85z m39.45 -0.45 c-1.15 -2.30 -1.15 -2.35 -1.20 -22.90 0 -21.90 -0.20 -23.70 -2.55 -28.65 -1.40 -2.90 -5.05 -6.40 -8.35 -8 -4.20 -2.05 -7.80 -1.90 -12.35 0.50 -1.90 1.05 -4.30 2.55 -5.25 3.35 l-1.75 1.50 2 -0.80 c1.30 -0.55 3.50 -0.85 6.25 -0.85 5.20 -0.05 8.35 1.30 10.85 4.60 2.85 3.70 2.90 4.25 2.90 28.40 l0 22.05 -1.15 1.55 -1.15 1.55 6.45 0 6.45 0 -1.15 -2.30z m184.40 0.80 c-1.15 -0.80 -2.30 -1.90 -2.55 -2.45 -0.65 -1.15 -0.70 -11.75 -0.20 -44.15 l0.30 -22.90 1.85 0 c1.85 0 1.85 0.05 3.90 4.40 2.80 6 4.70 10.40 10.60 24.60 8.25 19.80 14.10 32.65 17.90 39.50 l1.55 2.75 2 -4.25 c1.10 -2.35 3.50 -7.85 5.30 -12.25 1.85 -4.40 4.55 -10.80 6 -14.25 7.45 -17.90 16.80 -40.80 17.30 -42.55 0.55 -1.85 0.75 -1.95 2.55 -1.95 1.70 0 1.90 0.15 1.90 1.30 0 0.70 0.25 5.05 0.50 9.60 1.70 27.90 2.50 44.95 2.50 52.40 0 7.55 -0.10 8.60 -1 10.10 l-1 1.60 7.30 0 7.30 0 -1.50 -1.70 c-2.15 -2.45 -2.20 -3.10 -3.85 -36.30 -2.25 -45.60 -2.25 -44.30 0.35 -47.25 l1.50 -1.75 -5.45 0 -5.45 0 -2.30 5.15 c-3.15 6.95 -4.05 9 -10.35 24.85 -3 7.55 -8.40 20.50 -11.95 28.75 l-6.45 15 -2.05 0.15 c-1.50 0.10 -2.10 -0.05 -2.10 -0.50 0 -0.60 -3.45 -9.25 -5.20 -13.05 -0.40 -0.85 -3.65 -8.35 -7.25 -16.60 -3.55 -8.25 -8.60 -19.85 -11.20 -25.75 -2.60 -5.90 -5.35 -12.40 -6.15 -14.35 l-1.40 -3.65 -7.45 0 -7.45 0 2.45 1.95 c4.35 3.50 5.25 4.75 5.55 7.65 0.25 2.55 -0.25 19.30 -1.65 55.25 -0.70 17.95 -0.80 18.75 -2.90 21.05 l-1 1.10 5.65 0 5.65 0 -2.05 -1.50z m-333.85 -1.10 c4.15 -1.55 8.85 -3.85 10.40 -5.05 0.75 -0.65 0.85 -1.95 0.85 -14.10 0 -14.50 0.20 -15.65 2.90 -17.75 l1.25 -1 -9.35 0 -9.40 0 2.20 1.65 c1.25 0.95 2.40 2.35 2.75 3.35 0.40 1.20 0.60 6.15 0.60 15.15 l0.05 13.35 -1.60 1.75 c-0.90 0.95 -2.90 2.45 -4.40 3.30 -3.10 1.70 -2.05 1.55 3.75 -0.65z m486.50 0.90 c2.50 -0.65 5.10 -1.30 5.85 -1.50 l1.35 -0.30 -1.85 -1.70 -1.85 -1.70 -0.15 -27.10 c-0.10 -22.70 -0.25 -27.05 -0.80 -26.85 -0.40 0.15 -2.35 0.40 -4.35 0.60 -2.05 0.15 -4.45 0.40 -5.35 0.55 l-1.65 0.25 1.75 2 c0.90 1.10 1.80 2.70 2 3.55 0.15 0.85 0.30 10.20 0.30 20.85 0 15.80 -0.15 19.55 -0.70 20.70 -0.65 1.15 -0.65 1.35 -0.05 1.35 0.60 0 0.70 0.90 0.40 5.25 -0.15 3 -0.10 5.25 0.15 5.25 0.25 0 2.50 -0.55 4.95 -1.20z m57.95 -4.75 c4 -5.60 4.50 -11.20 1.55 -17.05 -1.30 -2.50 -4.55 -5.80 -7.25 -7.35 -0.95 -0.55 -4.85 -2.30 -8.60 -3.90 -11.80 -4.90 -13.85 -6.90 -14.30 -13.50 -0.25 -4.40 0.50 -7.70 2.35 -9.90 l1.30 -1.55 -1.65 1 c-6.35 3.65 -9.60 13 -6.75 19.30 2.10 4.60 4.10 5.95 17.85 12.20 10.10 4.55 13.30 8.40 13.30 15.90 0 3.90 -0.70 6.35 -2.40 8.35 l-1.35 1.60 2.15 -1.40 c1.15 -0.75 2.85 -2.45 3.80 -3.70z m-255.95 -33.10 c0.95 -3.10 2.30 -6.70 2.95 -8 l1.15 -2.45 -4.20 0 -4.25 0 1.35 1.60 c1.35 1.60 1.35 1.65 1.15 8 -0.10 3.50 -0.15 6.40 -0.10 6.40 0.10 0 0.95 -2.50 1.95 -5.55z m-208.50 -2.15 c0.20 -0.95 0 -3 -0.45 -4.75 -1.65 -6.50 -5.10 -11.05 -10.35 -13.65 -4.20 -2.05 -5.60 -2.25 -2.85 -0.45 2.50 1.70 4.90 5.05 5.95 8.30 0.35 1.10 0.65 4.15 0.65 6.75 l0.05 4.75 -14.50 0.25 -14.50 0.25 17.85 0.15 17.85 0.10 0.30 -1.70z m465.35 -13.60 l-0.20 -4.55 -3.55 -0.80 c-2 -0.45 -4.40 -0.95 -5.35 -1.10 l-1.75 -0.30 2 1.10 c1.10 0.60 2.65 1.65 3.45 2.40 1.70 1.55 5.30 6.75 5.30 7.60 0 0.35 0.05 0.50 0.15 0.40 0.10 -0.10 0.05 -2.25 -0.05 -4.75z m-275.10 -6.50 c2.20 -3.15 3.20 -6.70 2.55 -9.10 -1.10 -3.95 -4.75 -8.15 -9 -10.30 l-1.65 -0.90 1.55 1.95 c2.80 3.50 3.65 6.60 3.95 14.25 0.10 3.80 0.40 6.75 0.65 6.60 0.25 -0.15 1.15 -1.25 1.95 -2.50z m-210.10 -1.05 c-0.80 -0.10 -2 -0.10 -2.75 0 -0.80 0.10 -0.15 0.20 1.35 0.20 1.50 0 2.15 -0.10 1.40 -0.20z m528.50 0 c-0.80 -0.10 -2 -0.10 -2.75 0 -0.80 0.10 -0.15 0.20 1.35 0.20 1.50 0 2.15 -0.10 1.40 -0.20z m-579 -14.80 c-0.55 -6.65 -0.70 -7.30 -1.65 -7.50 -0.55 -0.15 -3.75 -0.95 -7.10 -1.80 -7.05 -1.80 -8.15 -1.90 -5.40 -0.45 5.70 3 11 8.85 13.55 15.05 0.50 1.25 1 2.20 1.10 2.10 0.10 -0.05 -0.15 -3.40 -0.50 -7.40z m275.35 -65.85 c47.50 -3.95 88.45 -22.40 123.70 -55.75 4.05 -3.85 13.75 -14.55 18.10 -20 20.70 -25.90 35.05 -56.50 41.40 -88.25 3.15 -15.75 4.55 -35.25 3.60 -49.45 -3.45 -50.30 -22.90 -94.95 -56.45 -129.65 -28.60 -29.50 -65.85 -50.10 -105.35 -58.10 -26.80 -5.45 -51.50 -5.60 -79.20 -0.50 -49.25 9.10 -92.85 36.30 -123.85 77.20 -13.05 17.20 -23.75 37.40 -30.55 57.70 -7.65 22.85 -10.45 41.80 -10 67.05 0.30 14.40 1.05 22.45 3.35 34.75 6.50 35.10 24.20 70.75 48.35 97.40 39.65 43.70 92.70 67.70 150.40 68.05 5.80 0 13.20 -0.20 16.50 -0.45z"/>
  <path d="M552.75 631.90 c-0.85 -2.80 -3.35 -17.60 -4 -23.85 -0.85 -8.70 -1 -26.50 -0.25 -33.30 2.40 -21.75 10.70 -42.55 20.70 -51.60 3.15 -2.80 7.95 -5.40 12.80 -6.90 2.95 -0.85 14.30 -1.70 24.05 -1.75 8.60 0 12.60 -1.55 15.70 -6 1.35 -1.95 1.50 -2.55 1.50 -5.95 0 -2.10 -0.30 -5.95 -0.65 -8.55 -1 -7.45 -0.55 -9.75 2.95 -15 1.85 -2.70 2.85 -4.65 2.65 -5.15 -0.15 -0.45 -1.05 -1.40 -2 -2.10 -1.45 -1.10 -1.70 -1.60 -1.70 -3.30 l0 -1.95 2.20 0 c1.90 0 2.40 -0.25 4 -2 1 -1.10 1.80 -2.25 1.80 -2.55 0 -0.30 -1 -1.90 -2.25 -3.55 -2.70 -3.60 -3.45 -6.15 -3.10 -10.25 0.50 -5.05 1.55 -6.50 6.65 -9.05 3.70 -1.85 6 -3.70 7 -5.70 0.75 -1.50 0.75 -1.60 -1.05 -4.10 -1 -1.40 -3.85 -5 -6.30 -8.05 -5.50 -6.70 -10.45 -14.05 -12.20 -17.95 -2.50 -5.70 -2.90 -8.80 -3 -24.80 -0.10 -16.70 -0.10 -16.95 -4.55 -34.75 -5.05 -20.05 -7.95 -27.55 -13.70 -35.15 -5.10 -6.80 -12.90 -12.75 -21.10 -16.20 -6.85 -2.90 -6.80 -2.90 -4.20 0.30 6.85 8.40 11.50 19.70 13.35 32.35 0.80 5.50 0.80 19.30 0 23.45 -0.35 1.80 -1.65 6.40 -2.90 10.25 -4.50 13.70 -3.60 16.50 11.35 34.75 11.50 14.05 12.95 16.65 13 22.40 0 6.15 -1.50 8.25 -8.75 12.30 -4.95 2.75 -7.85 5.15 -8.75 7.25 -0.65 1.60 -0.30 2.60 2.75 7.80 1.25 2.20 1.75 3.60 1.75 5.25 0 2.15 -0.15 2.40 -3.10 5.05 l-3.10 2.80 1.65 3.30 c1.45 2.85 1.65 3.65 1.45 6.05 -0.25 2.80 -0.90 4.05 -4.60 8.65 -0.95 1.15 -2.10 3.15 -2.60 4.40 -0.85 2.30 -0.85 2.45 0.20 6.90 1.80 7.35 1.25 14.35 -1.45 19.25 -2.90 5.15 -5.95 6.20 -19.20 6.50 -8.25 0.15 -10.35 0.05 -15.50 -0.90 -10.05 -1.85 -14.70 -1.25 -21.30 2.60 -10.80 6.35 -16.30 20.10 -14.50 36.15 2.45 21.50 13.45 47.40 29.85 70.20 2.50 3.50 3.20 4.90 3.20 6.30 0 1.65 -0.10 1.75 -1.65 1.75 -1.10 0 -2.50 -0.55 -3.90 -1.60 -3.55 -2.55 -14.95 -14.20 -19.45 -19.90 -15.60 -19.80 -29.45 -47.95 -35.45 -72.25 -3.05 -12.35 -4.55 -24.50 -4.55 -36.70 0 -12.95 1.20 -21.95 4.35 -32.25 1.35 -4.40 1.40 -4.50 5 -7.55 5 -4.30 9.70 -7.45 17.40 -11.75 9.15 -5.10 14.65 -9 19.40 -13.75 9.20 -9.20 16.05 -21.75 19.15 -35.10 0.40 -1.80 0.70 -3.35 0.60 -3.40 -0.10 -0.10 -2.30 1.25 -4.90 2.95 -2.65 1.65 -6.25 3.95 -8 5.05 -19.70 12.20 -32.10 22.85 -39.25 33.75 -9.70 14.75 -16.75 34.80 -16.75 47.55 l0 3.95 -1.75 0 c-2.10 0 -2.35 -0.40 -5.15 -9 -2.60 -8 -4.70 -16.50 -6.10 -24.75 -0.95 -5.65 -1.05 -7.75 -0.85 -16.25 0.20 -8.30 0.40 -10.50 1.50 -14.85 3.25 -12.60 9.40 -23.95 18.65 -34.10 5.10 -5.60 13.20 -11.60 25.70 -19.05 18.65 -11.10 33.70 -26.25 40.75 -40.80 4.20 -8.85 5.65 -18.45 3.55 -23.95 -2.35 -6.15 -7.90 -12.50 -14.80 -17 -14.05 -9.20 -31.95 -13.80 -53.25 -13.80 -17.80 0.05 -33.35 3.60 -48.95 11.25 -9.35 4.60 -13.05 5.75 -20.05 6.25 -4.15 0.30 -6.10 0.70 -7.75 1.55 -7.60 3.85 -13.60 13.65 -12.90 21 0.50 5.20 6 13.50 11.40 17.25 1.95 1.35 2.05 1.55 1.85 3.45 -0.15 1.80 -6.20 24.70 -8.85 33.80 -0.50 1.80 -1.40 5 -1.95 7.15 -1.25 4.75 -1.05 5.25 3.50 10.15 4.85 5.20 4.75 5.65 -7.45 28.45 -2.35 4.40 -5.90 10.85 -7.90 14.30 -2.05 3.50 -3.90 6.95 -4.20 7.65 -0.60 1.70 0.05 3.55 2.10 5.65 1.80 1.85 3.15 2.35 8.30 3.15 3.95 0.55 6.75 1.75 8.35 3.50 1.65 1.85 1.30 6.70 -0.90 12.50 -1 2.60 -1.85 5 -1.85 5.30 0 0.70 3.10 3.50 5.35 4.85 2.15 1.25 2.20 3.10 0.15 5.95 -2.30 3.15 -2.05 4.05 2.10 9.05 l2.40 2.90 0 4.20 c0 3.35 -0.25 4.75 -1.20 6.95 -1.45 3.20 -3.30 10.35 -3.30 12.50 0 3.85 4.25 9.40 9.15 12 3.55 1.85 6.60 2 14.60 0.85 14.55 -2.15 23.30 -0.90 29.60 4.25 5.30 4.35 7.30 13.80 6.20 29.20 -2.10 29.65 -14.90 47.10 -39.65 54.05 -5.30 1.50 -7.40 1.30 -11.85 -1.15 -22.75 -12.45 -46.95 -34.40 -63.50 -57.60 -16.55 -23.20 -27.20 -48.30 -32.75 -77.05 -5.45 -28.30 -4.75 -60.75 1.95 -88.25 4.15 -17.15 10.70 -33.90 19 -48.50 5.55 -9.75 7.90 -13.45 14.20 -22 12.35 -16.80 30.25 -34.05 46.90 -45.30 26.70 -17.95 55.15 -28.40 88.15 -32.50 14.10 -1.70 39.20 -1.45 54.75 0.55 34.20 4.45 68.20 19 95.70 40.95 26.60 21.25 46.30 47.55 59.30 79.30 6.80 16.55 11.65 35.85 13.85 54.75 0.85 7.35 0.85 35.65 0 43.25 -3.95 35 -15.10 65.20 -34.35 93 -19.90 28.70 -44.65 50.15 -75.70 65.75 -18.15 9.10 -47.70 17.95 -48.80 14.65z"/>
 </g>
 <g fill="#b08e51">
  <path d="M608.15 781.90 c-3.10 -5.70 -8.15 -16.30 -11.65 -24.60 -1.05 -2.50 -4 -9.50 -6.50 -15.55 -8.20 -19.55 -11.90 -27.75 -12.55 -27.75 -0.25 0 -0.45 4 -0.45 8.90 0 4.85 -0.15 19.10 -0.30 31.60 l-0.35 22.75 1.10 1.40 c1.45 1.75 4.90 3.75 8.45 4.85 1.55 0.50 2.85 1.05 2.95 1.30 0.10 0.25 -6.05 0.40 -13.95 0.35 -7.80 -0.10 -14.35 -0.15 -14.55 -0.15 -0.25 0 -0.25 -0.20 -0.10 -0.50 0.15 -0.25 1.15 -0.50 2.15 -0.50 2.25 -0.05 6.15 -2.70 7.35 -5.05 0.65 -1.20 0.95 -4.95 1.50 -19.10 1.45 -38.30 1.85 -51.80 1.55 -53.50 -0.45 -2.30 -5.50 -7.05 -9.75 -9.15 -1.65 -0.80 -3 -1.60 -3 -1.80 -0.05 -0.25 5.10 -0.40 11.35 -0.40 l11.40 0 1.40 3.65 c0.80 1.95 3.55 8.45 6.15 14.35 2.60 5.90 7.65 17.50 11.20 25.75 3.60 8.25 6.85 15.75 7.25 16.60 1.75 3.85 5.20 12.45 5.20 13.05 0 0.40 0.25 0.60 0.60 0.50 0.70 -0.25 11.55 -25.30 18.95 -43.90 6.30 -15.85 7.20 -17.90 10.35 -24.85 l2.30 -5.15 10.45 0 c6.80 0 10.30 0.15 10.10 0.50 -0.15 0.30 -0.75 0.50 -1.30 0.50 -1.60 0 -5.70 2.30 -7.10 4 -1.75 2.05 -2.05 3.95 -1.65 11.65 3 61.95 3.25 65.65 4.55 67.70 0.95 1.45 3.65 3.45 5.90 4.40 1.75 0.70 2.75 2.20 1.05 1.55 -0.45 -0.15 -7.20 -0.30 -15 -0.30 -13.25 0 -16.85 -0.35 -11.65 -1.20 2.50 -0.40 4.70 -1.85 5.70 -3.80 1.30 -2.50 0.95 -14.75 -1.75 -59.10 -0.25 -4.55 -0.50 -8.90 -0.50 -9.60 0 -1.95 -0.75 -1.55 -1.45 0.65 -0.50 1.75 -9.85 24.65 -17.30 42.55 -1.45 3.45 -4.15 9.85 -6 14.25 -3.65 8.80 -7.25 16.50 -8.30 17.90 -0.65 0.80 -1 0.35 -3.80 -4.75z"/>
  <path d="M215.50 786.45 c-13.75 -1.35 -23.20 -5.95 -30.95 -15.05 -7.15 -8.40 -10.75 -18.95 -10.75 -31.65 0 -7 0.65 -10.75 3 -16.70 4.45 -11.20 14.15 -21.35 25.80 -26.80 12 -5.60 27.80 -5.65 48.20 -0.15 l4.05 1.10 0.60 8.25 c1.10 15.25 1.10 16.05 0.70 16.05 -0.25 0 -0.85 -0.95 -1.40 -2.10 -4.80 -11.15 -7.60 -15.55 -11.85 -18.75 -8.20 -6.20 -16.80 -8.05 -26.15 -5.65 -20.80 5.30 -31.80 25.85 -28.25 52.60 2.75 20.35 14.35 33.55 31.60 35.95 3.45 0.45 4.95 0.40 8.90 -0.25 5.75 -0.95 12.05 -3.85 14.50 -6.60 l1.55 -1.80 -0.15 -12.65 c-0.15 -11.95 -0.20 -12.75 -1.20 -14.10 -1.45 -1.90 -4.90 -4 -8.10 -4.80 -1.45 -0.35 -2.65 -0.85 -2.60 -1.15 0 -0.60 31.55 -0.85 32.10 -0.30 0.25 0.25 -0.75 1.05 -2.35 1.80 -1.50 0.75 -3.35 2.20 -4.15 3.15 l-1.35 1.80 -0.15 14 c-0.15 15.80 0.25 14.30 -4.60 16.80 -10.75 5.60 -24.60 8.20 -37 7z"/>
  <path d="M763.75 786.25 c-2.85 -0.55 -10.20 -2.60 -10.60 -2.95 -0.05 -0.05 -0.60 -4.35 -1.15 -9.55 -0.60 -5.20 -1.10 -9.60 -1.15 -9.75 -0.05 -0.15 0.15 -0.35 0.40 -0.45 0.30 -0.10 1.60 1.70 2.90 4 6.55 11.35 11.65 15.45 19.35 15.45 3.95 0 6.65 -1.15 8.85 -3.65 4.05 -4.60 3.35 -11.25 -1.60 -16.10 -2 -2 -4 -3.15 -9.05 -5.45 -10.90 -4.95 -12.65 -5.90 -14.75 -7.95 -3.25 -3.10 -4.20 -5.75 -4.20 -11.35 0 -4.30 0.15 -5.05 1.65 -8.05 1.95 -4.10 4.55 -6.50 9.45 -8.80 5.70 -2.75 12.55 -2.85 23.45 -0.30 l3.55 0.80 0.35 6 c0.45 8.90 0.40 10.85 -0.30 10.85 -0.35 0 -1.20 -1.30 -1.85 -2.90 -3.35 -7.90 -8.20 -12.45 -14.15 -13.35 -12.20 -1.85 -18.40 13.70 -8.10 20.20 1.20 0.80 5.30 2.75 9.10 4.30 8.20 3.45 9.70 4.30 12.50 6.95 7.10 6.70 7.25 18.90 0.35 26 -5.30 5.50 -15.20 7.85 -25 6.05z"/>
  <path d="M295.25 786 c-5.30 -1.10 -12.05 -5.45 -15.40 -9.95 -6.35 -8.35 -8.10 -22.20 -4.25 -34.05 2.40 -7.55 7.80 -15.15 13.25 -18.80 3.60 -2.40 9.65 -4.20 14.05 -4.20 7.40 0 15.50 3.70 18.90 8.65 3.05 4.45 4.80 11.20 4 15.55 l-0.35 1.80 -20.45 0 -20.50 0 0 5.05 c0 12.70 5.30 22.65 13.90 26 3.70 1.50 12.05 1.60 15.55 0.30 3.35 -1.30 7.40 -4.60 9.35 -7.65 1.35 -2.05 2 -2.70 2.95 -2.70 1.60 0 1.55 0.40 -0.20 3.90 -3.55 7.05 -8.80 12.05 -15.55 14.85 -2.60 1.05 -4.25 1.35 -8.25 1.50 -2.75 0.10 -5.90 0 -7 -0.25z m6.30 -44.50 c12.60 0 14 -0.10 14.30 -0.85 0.55 -1.35 -0.65 -7.90 -1.85 -10.45 -1.50 -3.05 -4.45 -5.90 -7.30 -7 -2.80 -1.05 -7.65 -0.75 -10.50 0.70 -4.20 2.15 -7.80 7.35 -9.65 14 -1 3.55 -0.90 4.35 0.35 3.85 0.35 -0.15 6.95 -0.25 14.65 -0.25z"/>
  <path d="M423.60 785.90 c-2.70 -0.60 -5.75 -3.50 -7.40 -7.10 l-1.15 -2.55 -0.15 -25.10 -0.15 -25.10 -4.75 -0.15 -4.75 -0.15 2.50 -2.25 c6.55 -6 13.25 -12.10 15.45 -14.20 1.35 -1.25 2.55 -2.20 2.60 -2.15 0.10 0.10 0.20 3.10 0.25 6.75 l0.10 6.60 9.20 0 9.20 0 -0.35 2.40 c-0.15 1.30 -0.40 2.50 -0.55 2.75 -0.10 0.20 -4.15 0.35 -8.95 0.35 l-8.75 0 0.15 23.65 c0.15 21.80 0.20 23.75 1.10 25.45 1.35 2.75 3.50 3.90 7.35 3.90 3.65 0 7.25 -0.85 10.40 -2.45 3.40 -1.75 3.70 -0.65 0.70 2.30 -5.95 5.80 -14.95 8.65 -22.05 7.05z"/>
  <path d="M482.90 785.75 c-7.10 -1.80 -12.10 -5.80 -15.25 -12.10 -1.65 -3.35 -1.90 -4.25 -2.05 -8.40 -0.25 -5.45 0.35 -8.75 2.50 -13.15 2.10 -4.45 6.95 -9.10 12.85 -12.35 2.50 -1.35 4.80 -2.65 5.15 -2.85 0.45 -0.25 0.35 -0.80 -0.50 -2.25 -2.50 -4.10 -5.60 -11.05 -6.40 -14.15 -2.45 -9.70 3.15 -18.55 13.75 -21.80 6.80 -2.05 16.15 0.35 21.30 5.55 6.85 6.85 6.10 15.70 -1.95 23.15 -2.40 2.20 -3.80 2.45 -2.70 0.45 0.45 -0.75 0.65 -3.40 0.65 -8.35 -0.05 -6.30 -0.20 -7.60 -1.15 -10.05 -1.25 -3.15 -4 -6.60 -6.15 -7.70 -3.05 -1.60 -7.25 -0.60 -9.70 2.30 -2.55 3.05 -3.75 6.30 -3.75 10.20 0.05 7.05 2.95 11.85 20.70 34 12.05 15.05 12.40 15.50 13.05 15.65 1.15 0.30 4.35 -8.25 5.50 -14.85 0.40 -2.30 0.75 -5.70 0.75 -7.60 0 -3.15 -0.15 -3.55 -1.60 -5.25 -0.90 -1 -2.35 -2.15 -3.25 -2.55 -3.30 -1.35 -1.80 -1.65 8 -1.65 l9.60 0 -2.35 2.15 c-2.55 2.25 -3.05 3.25 -6.45 13.55 -2 6 -6.50 16.30 -7.85 17.90 -0.60 0.70 0 1.65 5.05 8 5.40 6.85 8.35 9.75 10.60 10.60 0.95 0.40 0.95 0.45 -0.25 0.90 -1.65 0.65 -14.45 0.25 -15.80 -0.50 -0.80 -0.40 -5.25 -5.55 -7 -8 -0.05 -0.10 -1.60 1 -3.45 2.40 -3.90 2.95 -7.30 4.75 -11.50 6.15 -4.05 1.30 -16.20 1.65 -20.35 0.60z m21.35 -6 c3.80 -1.25 11.25 -5.45 11.25 -6.35 0 -0.55 -0.40 -1.10 -15.40 -20.05 -6.05 -7.60 -11.30 -14.30 -11.65 -14.85 -0.65 -1 -0.80 -0.90 -3 1.85 -5.90 7.40 -8.25 15.40 -6.95 23.50 1.35 8.45 5.35 13.55 12.45 16 4.45 1.50 8.60 1.50 13.30 -0.10z"/>
  <path d="M697.05 785.95 c-7.30 -1.30 -9.50 -3.75 -12.05 -13.65 -0.90 -3.65 -1 -5.50 -1 -22.80 l0 -18.80 -1.80 -2.10 c-1 -1.15 -2.80 -2.70 -4 -3.40 -1.20 -0.70 -2.20 -1.45 -2.20 -1.65 0 -0.20 3.55 -0.75 7.90 -1.25 4.30 -0.50 8.70 -1 9.70 -1.15 l1.85 -0.25 0.15 24.15 c0.15 24.15 0.15 24.20 1.30 26.50 3.40 6.85 10.25 9.15 17.05 5.70 3.35 -1.65 9.55 -6.65 10.10 -8.10 0.50 -1.40 0.65 -35.60 0.10 -38.20 -0.40 -2.15 -4.55 -6.35 -6.65 -6.80 -0.85 -0.15 -1.35 -0.50 -1.15 -0.70 0.40 -0.40 3.20 -0.85 12.85 -1.95 2.70 -0.35 5.25 -0.70 5.60 -0.85 0.55 -0.20 0.70 4.65 0.80 27 l0.15 27.30 1.50 1.55 c0.80 0.85 2.50 1.85 3.75 2.20 2.30 0.70 3.05 1.90 1.25 2.20 -0.55 0.10 -4.60 1.05 -9 2.20 -11.25 2.90 -10.45 2.75 -10.05 1.35 0.50 -1.55 1.15 -10.45 0.80 -10.45 -0.15 0 -1.75 1.40 -3.55 3.15 -3.60 3.55 -8 6.55 -11.55 7.95 -2.95 1.10 -8.25 1.50 -11.85 0.85z"/>
  <path d="M823.50 785.95 c-7.10 -1.35 -14.40 -7.30 -18 -14.60 -2.80 -5.80 -3.70 -10.55 -3.35 -18.10 0.40 -7.65 1.30 -11.35 4.15 -17.15 7.50 -15.10 22.60 -21.05 36.65 -14.45 4.20 1.95 7.20 5.05 9.30 9.50 1.90 3.90 2.60 7.95 2.05 11.55 l-0.35 2.30 -20.50 0 -20.45 0 0 5.45 c0 5.25 0.80 10.35 2.10 13.45 0.35 0.75 1.55 2.80 2.70 4.60 3.45 5.30 8.50 8.30 14.90 8.80 4.20 0.35 8.55 -0.35 11.60 -1.90 2.10 -1.05 6.35 -5.15 8.35 -8.10 0.90 -1.30 3.35 -1.85 3.35 -0.75 0 0.70 -2.60 5.40 -4.50 8.20 -6.05 8.75 -17.30 13.30 -28 11.20z m18.75 -44.80 l2.40 -0.30 -0.30 -3.30 c-0.80 -8.85 -5.45 -14.30 -12.75 -14.95 -5.40 -0.45 -9.80 1.90 -13.10 6.95 -1.70 2.65 -4.50 9.65 -4.50 11.35 0 0.45 2.95 0.60 12.95 0.60 7.10 0 14 -0.15 15.30 -0.35z"/>
  <path d="M347.80 785 l-12.95 -0.25 2.85 -1.20 c2.15 -0.85 3.20 -1.70 4.20 -3.20 l1.35 -2.05 0.15 -21.50 c0.10 -13.90 0 -22.15 -0.35 -23.30 -0.70 -2.30 -4.10 -5.70 -6.85 -6.85 -1.20 -0.50 -2.20 -1 -2.20 -1.15 0 -0.20 1.35 -0.60 3 -0.90 1.65 -0.35 6.30 -1.85 10.35 -3.30 4.05 -1.50 7.40 -2.65 7.45 -2.65 0.05 0.05 -0.10 2.80 -0.30 6.10 -0.15 3.30 -0.20 6.20 -0.10 6.40 0.10 0.20 2.25 -1.60 4.80 -4 3.05 -2.90 5.85 -5.10 8.30 -6.40 3.55 -1.90 3.95 -2 8.25 -2 3.90 0 4.85 0.20 7.30 1.35 3.35 1.65 7 5.15 8.40 8.05 2.40 5 2.55 6.85 2.65 28.60 0.05 23.10 0.05 23.20 3.55 25.75 1.15 0.80 2.35 1.50 2.70 1.50 0.35 0 0.65 0.30 0.65 0.65 0 0.45 -1.75 0.55 -7.35 0.50 -4.10 -0.05 -9.95 -0.15 -13.05 -0.15 -3.65 0 -5.55 -0.20 -5.35 -0.50 0.15 -0.25 0.70 -0.50 1.20 -0.50 1.50 0 5.10 -2.95 5.85 -4.85 0.65 -1.45 0.70 -4.95 0.55 -21.80 -0.10 -14.20 -0.35 -20.65 -0.75 -21.95 -1 -2.90 -3.60 -5.95 -6.25 -7.30 -5.45 -2.70 -11.90 -0.90 -18.10 5.05 l-3.25 3.10 0 21 0 21 1.20 1.80 c0.65 0.95 2.25 2.30 3.50 3 1.25 0.65 2.30 1.50 2.30 1.80 0 0.35 -0.15 0.60 -0.35 0.55 -0.25 -0.05 -6.25 -0.25 -13.35 -0.40z"/>
  <path d="M494.50 641.25 c-17.25 -1.75 -31.30 -4.70 -46.50 -9.75 -45.40 -15.15 -84.90 -47 -110.15 -88.70 -4.70 -7.80 -11.30 -21.15 -14.75 -29.80 -6.30 -15.80 -10.20 -31.25 -12.70 -49.75 -1.45 -10.90 -1.80 -35.30 -0.65 -47.20 3.85 -40.90 20.10 -78.95 47.70 -111.80 8.45 -10.10 22.85 -23.50 34.05 -31.85 34.60 -25.60 77.55 -39.40 122.75 -39.40 44.25 0 87.55 14.50 122.60 41.10 33.65 25.45 56.65 57.35 70.30 97.40 6.85 20.10 11.05 46.05 10.80 66.60 -0.55 44.40 -14 84.95 -39.85 120.40 -32.85 44.95 -82.25 74.80 -135.35 81.70 -14.50 1.90 -35.30 2.35 -48.25 1.05z m68.30 -11.75 c54.70 -14.05 100.90 -51.55 127.05 -103.25 10.95 -21.65 17.35 -43.60 20.25 -69.25 0.80 -7.50 0.80 -33 0 -40.25 -3.10 -27.20 -11.30 -53.05 -24.10 -76.25 -23.25 -42.10 -62.45 -74.65 -108.75 -90.35 -22.20 -7.50 -43.05 -10.55 -68.25 -10 -27.45 0.60 -50 5.25 -73.60 15.15 -32.10 13.50 -60.40 35.75 -80.95 63.70 -6.30 8.55 -8.65 12.25 -14.20 22 -5.50 9.70 -10.60 21.25 -14.40 32.50 -16.60 49.30 -12.65 106.10 10.60 152.35 15.95 31.80 41.15 59.65 71.35 78.90 3 1.90 7 4.30 8.80 5.25 l3.30 1.70 3.65 -0.95 c5.15 -1.30 11.30 -3.80 14.95 -6 15.85 -9.65 23.95 -24.85 25.55 -48.10 1.15 -16.80 -1.95 -25.30 -10.60 -29.10 -6.30 -2.80 -11.30 -3.15 -22.20 -1.50 -11.90 1.75 -16.65 0.90 -21.95 -4.05 -3.20 -2.95 -4.80 -6.35 -4.80 -10.30 0 -3.45 1.55 -10.05 3.30 -14 0.80 -1.80 1.20 -3.65 1.20 -5.45 0 -2.50 -0.20 -2.90 -2.40 -5.60 -3.20 -3.85 -3.60 -4.65 -3.60 -7.55 0 -1.90 0.30 -2.90 1.45 -4.45 l1.45 -2.05 -2.40 -1.55 c-2.80 -1.85 -5 -4.25 -5 -5.50 0 -0.50 0.90 -3.35 2.05 -6.35 2.25 -6 2.55 -8.70 1.15 -10.25 -1.55 -1.70 -4.40 -2.90 -8.30 -3.45 -5.35 -0.80 -6.65 -1.35 -8.60 -3.50 -1.85 -2.10 -2.60 -4.55 -2.10 -7.10 0.15 -0.90 2.20 -4.85 4.50 -8.85 8.55 -14.90 18.30 -33.85 18.30 -35.55 0 -0.55 -1.35 -2.45 -2.95 -4.20 -5.35 -5.75 -5.45 -6.45 -2.30 -17.60 1 -3.55 3.50 -12.65 5.50 -20.20 2 -7.55 3.80 -14.10 4 -14.55 0.20 -0.55 -0.35 -1.20 -1.80 -2.20 -3.30 -2.30 -7.35 -7.20 -9.35 -11.20 -3.45 -6.95 -2.75 -14.80 1.95 -21.75 2.55 -3.85 5.45 -6.50 8.95 -8.30 1.65 -0.85 3.60 -1.25 7.75 -1.55 6.75 -0.50 11.65 -1.95 18.50 -5.50 6.95 -3.55 12.25 -5.70 19.10 -7.65 19.55 -5.65 44.60 -5.95 63.90 -0.80 19.75 5.25 33.95 15.30 38.55 27.25 1.50 3.95 1.30 13.10 -0.45 18.90 -5.35 17.50 -21.45 35.45 -43.85 48.85 -12.50 7.45 -20.60 13.45 -25.70 19.05 -9.25 10.15 -15.45 21.55 -18.60 34.10 -1.95 7.60 -2.20 19.20 -0.70 28.10 1.90 11.35 7.25 30.40 9.25 33.05 0.65 0.85 0.70 0.50 0.75 -3.10 0 -9.75 4.05 -23.90 10.45 -36.70 8.95 -18 20.50 -29.35 45.95 -45 2 -1.25 6.50 -4.10 9.95 -6.40 3.45 -2.30 6.35 -4.05 6.45 -3.95 0.10 0.10 -0.30 2.60 -0.85 5.55 -2.85 15.05 -9.75 28.45 -19.80 38.55 -4.75 4.75 -10.25 8.65 -19.40 13.75 -7.70 4.30 -12.40 7.45 -17.40 11.75 -3.60 3.05 -3.65 3.15 -5 7.55 -5.85 19.25 -5.80 41.70 0.20 65.95 6 24.30 19.85 52.45 35.45 72.25 6.40 8.10 20.95 22.25 21.85 21.30 0.15 -0.15 -1.25 -2.25 -3 -4.75 -10.75 -14.95 -19.10 -30.90 -24.35 -46.50 -11.55 -34.55 -6.10 -58.45 15 -65.65 4.30 -1.45 9.75 -1.45 18.10 0.05 5.40 1 7.50 1.10 14.25 0.95 13.65 -0.40 17.05 -2.40 19.40 -11.35 1 -3.90 0.95 -6.50 -0.25 -11.05 -1.85 -7.15 -1 -11 3.70 -16.50 1.25 -1.50 2.60 -3.60 2.90 -4.60 0.55 -1.80 0.45 -2.20 -1.25 -5.45 -1 -1.90 -1.85 -4 -1.85 -4.60 0 -0.75 1.10 -2.10 3.30 -4.15 3.90 -3.55 3.90 -3.55 0.65 -8.95 -4.55 -7.50 -3.05 -11.10 6.85 -16.60 6.65 -3.70 8.70 -6.20 8.70 -10.75 -0.05 -4.10 -2.45 -7.95 -13 -20.90 -12.20 -14.95 -13.70 -17.75 -13.70 -25.75 0 -4.60 0.20 -5.60 2.35 -12 3 -9.10 3.50 -12.15 3.50 -20 -0.05 -18.45 -6 -35.05 -16.40 -45.55 -1.90 -1.95 -3.95 -3.80 -4.50 -4.10 -2.20 -1.15 -0.05 -1.15 4.60 0.05 13 3.35 23.60 10.10 30.65 19.45 5.75 7.60 8.65 15.10 13.70 35.15 4.45 17.75 5.35 24.95 4.70 37.25 -0.85 16.90 1.25 22.80 13.80 38.65 9 11.35 9.30 11.80 9.30 13.70 0 3.50 -1.90 5.60 -7.75 8.80 -4.35 2.30 -5.90 4.10 -6.45 7.35 -0.45 2.95 0.40 5.50 2.95 8.90 3.05 4 3.10 6.20 0.35 9.20 -1.65 1.75 -2.20 2.05 -4 2.05 -1.15 0 -2.10 0.10 -2.10 0.25 0 0.15 1 1.25 2.25 2.45 1.45 1.35 2.25 2.55 2.25 3.35 0 0.65 -1.45 3.30 -3.20 5.90 -3.50 5.30 -3.95 6.85 -3.30 12.25 0.25 1.85 0.65 5.15 0.90 7.25 0.85 6.75 -0.80 11.10 -5.30 13.95 -3.20 2 -5.60 2.35 -18.60 2.70 -12.90 0.35 -16.50 0.85 -22 3.20 -8.10 3.45 -13.20 8.95 -19 20.55 -4.65 9.25 -8.60 23.60 -10 36.25 -0.75 6.70 -0.60 21.60 0.25 30.30 0.65 6.25 3.15 21.05 4 23.85 0.30 0.95 2.10 0.75 8.55 -0.90z"/>
 </g>
</svg>